<svg xmlns="http://www.w3.org/2000/svg" xmlns:svg="http://www.w3.org/2000/svg" id="svg22" width="36" height="36" preserveAspectRatio="xMidYMid meet" version="1.1" viewBox="0 0 36 36"><metadata id="metadata28"/><title id="title2">view-list-line</title><rect id="rect4" width="2" height="2" x="2" y="8" class="clr-i-outline clr-i-outline-path-1"/><path id="path6" d="M7,10H31a1,1,0,0,0,0-2H7a1,1,0,0,0,0,2Z" class="clr-i-outline clr-i-outline-path-2"/><rect id="rect8" width="2" height="2" x="8" y="14" class="clr-i-outline clr-i-outline-path-3"/><path id="path10" d="M 31,14 H 13 c -1.333333,0 -1.333333,2 0,2 h 18 c 1.333333,0 1.333333,-2 0,-2 z" class="clr-i-outline clr-i-outline-path-4"/><rect id="rect12" width="2" height="2" x="14" y="20" class="clr-i-outline clr-i-outline-path-5"/><path id="path14" d="M 31,20 H 19 c -1.333333,0 -1.333333,2 0,2 h 12 c 1.333333,0 1.333333,-2 0,-2 z" class="clr-i-outline clr-i-outline-path-6"/><rect id="rect16" width="2" height="2" x="8" y="26" class="clr-i-outline clr-i-outline-path-7"/><path id="path18" d="M 31,26 H 13 c -1.333333,0 -1.333333,2 0,2 h 18 c 1.333333,0 1.333333,-2 0,-2 z" class="clr-i-outline clr-i-outline-path-8"/><rect id="rect20" width="36" height="36" x="0" y="0" fill-opacity="0"/></svg>